<mxfile host="Electron" modified="2024-03-21T22:56:28.451Z" agent="Mozilla/5.0 (Windows NT 10.0; Win64; x64) AppleWebKit/537.36 (KHTML, like Gecko) draw.io/24.0.4 Chrome/120.0.6099.109 Electron/28.1.0 Safari/537.36" etag="hq5X_uXdKS9szPVwHjot" version="24.0.4" type="device">
  <diagram name="Página-1" id="Fd7Kd9GHyaJDAaIL9Sn_">
    <mxGraphModel dx="868" dy="1022" grid="1" gridSize="10" guides="1" tooltips="1" connect="1" arrows="1" fold="1" page="1" pageScale="1" pageWidth="827" pageHeight="1169" math="0" shadow="0">
      <root>
        <mxCell id="0" />
        <mxCell id="1" parent="0" />
        <mxCell id="5vMcAia91ODTiXavnZtS-42" value="A gas" style="swimlane;fontStyle=1;align=center;verticalAlign=top;childLayout=stackLayout;horizontal=1;startSize=26;horizontalStack=0;resizeParent=1;resizeParentMax=0;resizeLast=0;collapsible=1;marginBottom=0;whiteSpace=wrap;html=1;" vertex="1" parent="1">
          <mxGeometry x="120" y="680" width="190" height="86" as="geometry" />
        </mxCell>
        <mxCell id="5vMcAia91ODTiXavnZtS-43" value="- Calorias/m3: real" style="text;strokeColor=none;fillColor=none;align=left;verticalAlign=top;spacingLeft=4;spacingRight=4;overflow=hidden;rotatable=0;points=[[0,0.5],[1,0.5]];portConstraint=eastwest;whiteSpace=wrap;html=1;" vertex="1" parent="5vMcAia91ODTiXavnZtS-42">
          <mxGeometry y="26" width="190" height="26" as="geometry" />
        </mxCell>
        <mxCell id="5vMcAia91ODTiXavnZtS-44" value="" style="line;strokeWidth=1;fillColor=none;align=left;verticalAlign=middle;spacingTop=-1;spacingLeft=3;spacingRight=3;rotatable=0;labelPosition=right;points=[];portConstraint=eastwest;strokeColor=inherit;" vertex="1" parent="5vMcAia91ODTiXavnZtS-42">
          <mxGeometry y="52" width="190" height="8" as="geometry" />
        </mxCell>
        <mxCell id="5vMcAia91ODTiXavnZtS-45" value="+ Crear_Calefactor_a_gas()" style="text;strokeColor=none;fillColor=none;align=left;verticalAlign=top;spacingLeft=4;spacingRight=4;overflow=hidden;rotatable=0;points=[[0,0.5],[1,0.5]];portConstraint=eastwest;whiteSpace=wrap;html=1;" vertex="1" parent="5vMcAia91ODTiXavnZtS-42">
          <mxGeometry y="60" width="190" height="26" as="geometry" />
        </mxCell>
        <mxCell id="5vMcAia91ODTiXavnZtS-46" value="Electrico" style="swimlane;fontStyle=1;align=center;verticalAlign=top;childLayout=stackLayout;horizontal=1;startSize=26;horizontalStack=0;resizeParent=1;resizeParentMax=0;resizeLast=0;collapsible=1;marginBottom=0;whiteSpace=wrap;html=1;" vertex="1" parent="1">
          <mxGeometry x="540" y="680" width="200" height="86" as="geometry" />
        </mxCell>
        <mxCell id="5vMcAia91ODTiXavnZtS-47" value="- Potencia maxima: real" style="text;strokeColor=none;fillColor=none;align=left;verticalAlign=top;spacingLeft=4;spacingRight=4;overflow=hidden;rotatable=0;points=[[0,0.5],[1,0.5]];portConstraint=eastwest;whiteSpace=wrap;html=1;" vertex="1" parent="5vMcAia91ODTiXavnZtS-46">
          <mxGeometry y="26" width="200" height="26" as="geometry" />
        </mxCell>
        <mxCell id="5vMcAia91ODTiXavnZtS-48" value="" style="line;strokeWidth=1;fillColor=none;align=left;verticalAlign=middle;spacingTop=-1;spacingLeft=3;spacingRight=3;rotatable=0;labelPosition=right;points=[];portConstraint=eastwest;strokeColor=inherit;" vertex="1" parent="5vMcAia91ODTiXavnZtS-46">
          <mxGeometry y="52" width="200" height="8" as="geometry" />
        </mxCell>
        <mxCell id="5vMcAia91ODTiXavnZtS-49" value="+ Crear_Calefactor_Electrico()" style="text;strokeColor=none;fillColor=none;align=left;verticalAlign=top;spacingLeft=4;spacingRight=4;overflow=hidden;rotatable=0;points=[[0,0.5],[1,0.5]];portConstraint=eastwest;whiteSpace=wrap;html=1;" vertex="1" parent="5vMcAia91ODTiXavnZtS-46">
          <mxGeometry y="60" width="200" height="26" as="geometry" />
        </mxCell>
        <mxCell id="5vMcAia91ODTiXavnZtS-50" value="Calefactor" style="swimlane;fontStyle=1;align=center;verticalAlign=top;childLayout=stackLayout;horizontal=1;startSize=26;horizontalStack=0;resizeParent=1;resizeParentMax=0;resizeLast=0;collapsible=1;marginBottom=0;whiteSpace=wrap;html=1;" vertex="1" parent="1">
          <mxGeometry x="335" y="210" width="190" height="190" as="geometry" />
        </mxCell>
        <mxCell id="5vMcAia91ODTiXavnZtS-55" value="- Marca: cadena" style="text;strokeColor=none;fillColor=none;align=left;verticalAlign=top;spacingLeft=4;spacingRight=4;overflow=hidden;rotatable=0;points=[[0,0.5],[1,0.5]];portConstraint=eastwest;whiteSpace=wrap;html=1;" vertex="1" parent="5vMcAia91ODTiXavnZtS-50">
          <mxGeometry y="26" width="190" height="26" as="geometry" />
        </mxCell>
        <mxCell id="5vMcAia91ODTiXavnZtS-56" value="- Modelo: cadena" style="text;strokeColor=none;fillColor=none;align=left;verticalAlign=top;spacingLeft=4;spacingRight=4;overflow=hidden;rotatable=0;points=[[0,0.5],[1,0.5]];portConstraint=eastwest;whiteSpace=wrap;html=1;" vertex="1" parent="5vMcAia91ODTiXavnZtS-50">
          <mxGeometry y="52" width="190" height="26" as="geometry" />
        </mxCell>
        <mxCell id="5vMcAia91ODTiXavnZtS-51" value="- País de fabricación: cadena" style="text;strokeColor=none;fillColor=none;align=left;verticalAlign=top;spacingLeft=4;spacingRight=4;overflow=hidden;rotatable=0;points=[[0,0.5],[1,0.5]];portConstraint=eastwest;whiteSpace=wrap;html=1;" vertex="1" parent="5vMcAia91ODTiXavnZtS-50">
          <mxGeometry y="78" width="190" height="26" as="geometry" />
        </mxCell>
        <mxCell id="5vMcAia91ODTiXavnZtS-54" value="- Precio: real" style="text;strokeColor=none;fillColor=none;align=left;verticalAlign=top;spacingLeft=4;spacingRight=4;overflow=hidden;rotatable=0;points=[[0,0.5],[1,0.5]];portConstraint=eastwest;whiteSpace=wrap;html=1;" vertex="1" parent="5vMcAia91ODTiXavnZtS-50">
          <mxGeometry y="104" width="190" height="26" as="geometry" />
        </mxCell>
        <mxCell id="5vMcAia91ODTiXavnZtS-57" value="- Tipo de cliente: cadena" style="text;strokeColor=none;fillColor=none;align=left;verticalAlign=top;spacingLeft=4;spacingRight=4;overflow=hidden;rotatable=0;points=[[0,0.5],[1,0.5]];portConstraint=eastwest;whiteSpace=wrap;html=1;" vertex="1" parent="5vMcAia91ODTiXavnZtS-50">
          <mxGeometry y="130" width="190" height="26" as="geometry" />
        </mxCell>
        <mxCell id="5vMcAia91ODTiXavnZtS-52" value="" style="line;strokeWidth=1;fillColor=none;align=left;verticalAlign=middle;spacingTop=-1;spacingLeft=3;spacingRight=3;rotatable=0;labelPosition=right;points=[];portConstraint=eastwest;strokeColor=inherit;" vertex="1" parent="5vMcAia91ODTiXavnZtS-50">
          <mxGeometry y="156" width="190" height="8" as="geometry" />
        </mxCell>
        <mxCell id="5vMcAia91ODTiXavnZtS-53" value="+ Consultar_Precio()" style="text;strokeColor=none;fillColor=none;align=left;verticalAlign=top;spacingLeft=4;spacingRight=4;overflow=hidden;rotatable=0;points=[[0,0.5],[1,0.5]];portConstraint=eastwest;whiteSpace=wrap;html=1;" vertex="1" parent="5vMcAia91ODTiXavnZtS-50">
          <mxGeometry y="164" width="190" height="26" as="geometry" />
        </mxCell>
        <mxCell id="5vMcAia91ODTiXavnZtS-58" style="edgeStyle=orthogonalEdgeStyle;rounded=0;orthogonalLoop=1;jettySize=auto;html=1;exitX=0.5;exitY=0;exitDx=0;exitDy=0;entryX=0.685;entryY=1;entryDx=0;entryDy=0;entryPerimeter=0;" edge="1" parent="1" source="5vMcAia91ODTiXavnZtS-46" target="5vMcAia91ODTiXavnZtS-53">
          <mxGeometry relative="1" as="geometry">
            <Array as="points">
              <mxPoint x="640" y="630" />
              <mxPoint x="465" y="630" />
            </Array>
          </mxGeometry>
        </mxCell>
        <mxCell id="5vMcAia91ODTiXavnZtS-61" style="edgeStyle=orthogonalEdgeStyle;rounded=0;orthogonalLoop=1;jettySize=auto;html=1;exitX=0.5;exitY=0;exitDx=0;exitDy=0;entryX=0.323;entryY=1;entryDx=0;entryDy=0;entryPerimeter=0;" edge="1" parent="1" source="5vMcAia91ODTiXavnZtS-42" target="5vMcAia91ODTiXavnZtS-53">
          <mxGeometry relative="1" as="geometry">
            <Array as="points">
              <mxPoint x="215" y="630" />
              <mxPoint x="396" y="630" />
            </Array>
          </mxGeometry>
        </mxCell>
        <mxCell id="5vMcAia91ODTiXavnZtS-69" style="edgeStyle=orthogonalEdgeStyle;rounded=0;orthogonalLoop=1;jettySize=auto;html=1;exitX=0.5;exitY=0;exitDx=0;exitDy=0;entryX=0.496;entryY=0.986;entryDx=0;entryDy=0;entryPerimeter=0;dashed=1;" edge="1" parent="1" source="5vMcAia91ODTiXavnZtS-67" target="5vMcAia91ODTiXavnZtS-45">
          <mxGeometry relative="1" as="geometry">
            <mxPoint x="295.9999999999999" y="780" as="targetPoint" />
          </mxGeometry>
        </mxCell>
        <mxCell id="5vMcAia91ODTiXavnZtS-67" value="&lt;p style=&quot;margin:0px;margin-top:4px;text-align:center;text-decoration:underline;&quot;&gt;&lt;b&gt;:A gas&lt;/b&gt;&lt;/p&gt;&lt;hr size=&quot;1&quot; style=&quot;border-style:solid;&quot;&gt;&lt;p style=&quot;margin:0px;margin-left:8px;&quot;&gt;Eskabe&lt;br&gt;Miniconvex&lt;br&gt;Rusia&lt;/p&gt;&lt;p style=&quot;margin:0px;margin-left:8px;&quot;&gt;200000&lt;/p&gt;&lt;p style=&quot;margin:0px;margin-left:8px;&quot;&gt;Empresa&lt;/p&gt;&lt;p style=&quot;margin:0px;margin-left:8px;&quot;&gt;5000&lt;/p&gt;" style="verticalAlign=top;align=left;overflow=fill;html=1;whiteSpace=wrap;" vertex="1" parent="1">
          <mxGeometry x="135" y="810" width="160" height="120" as="geometry" />
        </mxCell>
        <mxCell id="5vMcAia91ODTiXavnZtS-68" value="&lt;p style=&quot;margin:0px;margin-top:4px;text-align:center;text-decoration:underline;&quot;&gt;&lt;b&gt;:Electrico&lt;/b&gt;&lt;/p&gt;&lt;hr size=&quot;1&quot; style=&quot;border-style:solid;&quot;&gt;&lt;p style=&quot;margin:0px;margin-left:8px;&quot;&gt;Emege&lt;/p&gt;&lt;p style=&quot;margin:0px;margin-left:8px;&quot;&gt;3150&lt;/p&gt;&lt;p style=&quot;margin:0px;margin-left:8px;&quot;&gt;España&lt;/p&gt;&lt;p style=&quot;margin:0px;margin-left:8px;&quot;&gt;100000&lt;/p&gt;&lt;p style=&quot;margin:0px;margin-left:8px;&quot;&gt;Particular&lt;/p&gt;&lt;p style=&quot;margin:0px;margin-left:8px;&quot;&gt;500&lt;/p&gt;" style="verticalAlign=top;align=left;overflow=fill;html=1;whiteSpace=wrap;" vertex="1" parent="1">
          <mxGeometry x="560" y="810" width="160" height="120" as="geometry" />
        </mxCell>
        <mxCell id="5vMcAia91ODTiXavnZtS-70" style="edgeStyle=orthogonalEdgeStyle;rounded=0;orthogonalLoop=1;jettySize=auto;html=1;exitX=0.5;exitY=0;exitDx=0;exitDy=0;entryX=0.498;entryY=1.018;entryDx=0;entryDy=0;entryPerimeter=0;dashed=1;" edge="1" parent="1" source="5vMcAia91ODTiXavnZtS-68" target="5vMcAia91ODTiXavnZtS-49">
          <mxGeometry relative="1" as="geometry" />
        </mxCell>
        <mxCell id="5vMcAia91ODTiXavnZtS-73" value="Fabricante" style="swimlane;fontStyle=1;align=center;verticalAlign=top;childLayout=stackLayout;horizontal=1;startSize=26;horizontalStack=0;resizeParent=1;resizeParentMax=0;resizeLast=0;collapsible=1;marginBottom=0;whiteSpace=wrap;html=1;" vertex="1" parent="1">
          <mxGeometry x="930" y="210" width="190" height="138" as="geometry" />
        </mxCell>
        <mxCell id="5vMcAia91ODTiXavnZtS-74" value="- Nombre: cadena" style="text;strokeColor=none;fillColor=none;align=left;verticalAlign=top;spacingLeft=4;spacingRight=4;overflow=hidden;rotatable=0;points=[[0,0.5],[1,0.5]];portConstraint=eastwest;whiteSpace=wrap;html=1;" vertex="1" parent="5vMcAia91ODTiXavnZtS-73">
          <mxGeometry y="26" width="190" height="26" as="geometry" />
        </mxCell>
        <mxCell id="5vMcAia91ODTiXavnZtS-75" value="- Direccion: cadena" style="text;strokeColor=none;fillColor=none;align=left;verticalAlign=top;spacingLeft=4;spacingRight=4;overflow=hidden;rotatable=0;points=[[0,0.5],[1,0.5]];portConstraint=eastwest;whiteSpace=wrap;html=1;" vertex="1" parent="5vMcAia91ODTiXavnZtS-73">
          <mxGeometry y="52" width="190" height="26" as="geometry" />
        </mxCell>
        <mxCell id="5vMcAia91ODTiXavnZtS-76" value="- Nacionalidad: cadena" style="text;strokeColor=none;fillColor=none;align=left;verticalAlign=top;spacingLeft=4;spacingRight=4;overflow=hidden;rotatable=0;points=[[0,0.5],[1,0.5]];portConstraint=eastwest;whiteSpace=wrap;html=1;" vertex="1" parent="5vMcAia91ODTiXavnZtS-73">
          <mxGeometry y="78" width="190" height="26" as="geometry" />
        </mxCell>
        <mxCell id="5vMcAia91ODTiXavnZtS-79" value="" style="line;strokeWidth=1;fillColor=none;align=left;verticalAlign=middle;spacingTop=-1;spacingLeft=3;spacingRight=3;rotatable=0;labelPosition=right;points=[];portConstraint=eastwest;strokeColor=inherit;" vertex="1" parent="5vMcAia91ODTiXavnZtS-73">
          <mxGeometry y="104" width="190" height="8" as="geometry" />
        </mxCell>
        <mxCell id="5vMcAia91ODTiXavnZtS-80" value="+ Crear_Fabricante()" style="text;strokeColor=none;fillColor=none;align=left;verticalAlign=top;spacingLeft=4;spacingRight=4;overflow=hidden;rotatable=0;points=[[0,0.5],[1,0.5]];portConstraint=eastwest;whiteSpace=wrap;html=1;" vertex="1" parent="5vMcAia91ODTiXavnZtS-73">
          <mxGeometry y="112" width="190" height="26" as="geometry" />
        </mxCell>
        <mxCell id="5vMcAia91ODTiXavnZtS-81" style="edgeStyle=orthogonalEdgeStyle;rounded=0;orthogonalLoop=1;jettySize=auto;html=1;exitX=1;exitY=0.5;exitDx=0;exitDy=0;entryX=0;entryY=0.5;entryDx=0;entryDy=0;endArrow=none;endFill=0;" edge="1" parent="1" source="5vMcAia91ODTiXavnZtS-56" target="5vMcAia91ODTiXavnZtS-86">
          <mxGeometry relative="1" as="geometry">
            <mxPoint x="621" y="275" as="targetPoint" />
          </mxGeometry>
        </mxCell>
        <mxCell id="5vMcAia91ODTiXavnZtS-82" value="1" style="text;html=1;align=center;verticalAlign=middle;resizable=0;points=[];autosize=1;strokeColor=none;fillColor=none;" vertex="1" parent="1">
          <mxGeometry x="910" y="248" width="30" height="30" as="geometry" />
        </mxCell>
        <mxCell id="5vMcAia91ODTiXavnZtS-83" value="*" style="text;html=1;align=center;verticalAlign=middle;resizable=0;points=[];autosize=1;strokeColor=none;fillColor=none;" vertex="1" parent="1">
          <mxGeometry x="610" y="480" width="30" height="30" as="geometry" />
        </mxCell>
        <mxCell id="5vMcAia91ODTiXavnZtS-84" value="Registro" style="swimlane;fontStyle=1;align=center;verticalAlign=top;childLayout=stackLayout;horizontal=1;startSize=26;horizontalStack=0;resizeParent=1;resizeParentMax=0;resizeLast=0;collapsible=1;marginBottom=0;whiteSpace=wrap;html=1;" vertex="1" parent="1">
          <mxGeometry x="640" y="440" width="190" height="138" as="geometry" />
        </mxCell>
        <mxCell id="5vMcAia91ODTiXavnZtS-85" value="- Fecha de fabricación: cadena" style="text;strokeColor=none;fillColor=none;align=left;verticalAlign=top;spacingLeft=4;spacingRight=4;overflow=hidden;rotatable=0;points=[[0,0.5],[1,0.5]];portConstraint=eastwest;whiteSpace=wrap;html=1;" vertex="1" parent="5vMcAia91ODTiXavnZtS-84">
          <mxGeometry y="26" width="190" height="26" as="geometry" />
        </mxCell>
        <mxCell id="5vMcAia91ODTiXavnZtS-86" value="- Numero de lote: entero" style="text;strokeColor=none;fillColor=none;align=left;verticalAlign=top;spacingLeft=4;spacingRight=4;overflow=hidden;rotatable=0;points=[[0,0.5],[1,0.5]];portConstraint=eastwest;whiteSpace=wrap;html=1;" vertex="1" parent="5vMcAia91ODTiXavnZtS-84">
          <mxGeometry y="52" width="190" height="26" as="geometry" />
        </mxCell>
        <mxCell id="5vMcAia91ODTiXavnZtS-87" value="- Cantidad por lote: entero" style="text;strokeColor=none;fillColor=none;align=left;verticalAlign=top;spacingLeft=4;spacingRight=4;overflow=hidden;rotatable=0;points=[[0,0.5],[1,0.5]];portConstraint=eastwest;whiteSpace=wrap;html=1;" vertex="1" parent="5vMcAia91ODTiXavnZtS-84">
          <mxGeometry y="78" width="190" height="26" as="geometry" />
        </mxCell>
        <mxCell id="5vMcAia91ODTiXavnZtS-88" value="" style="line;strokeWidth=1;fillColor=none;align=left;verticalAlign=middle;spacingTop=-1;spacingLeft=3;spacingRight=3;rotatable=0;labelPosition=right;points=[];portConstraint=eastwest;strokeColor=inherit;" vertex="1" parent="5vMcAia91ODTiXavnZtS-84">
          <mxGeometry y="104" width="190" height="8" as="geometry" />
        </mxCell>
        <mxCell id="5vMcAia91ODTiXavnZtS-89" value="+ Emitir_Registro()" style="text;strokeColor=none;fillColor=none;align=left;verticalAlign=top;spacingLeft=4;spacingRight=4;overflow=hidden;rotatable=0;points=[[0,0.5],[1,0.5]];portConstraint=eastwest;whiteSpace=wrap;html=1;" vertex="1" parent="5vMcAia91ODTiXavnZtS-84">
          <mxGeometry y="112" width="190" height="26" as="geometry" />
        </mxCell>
        <mxCell id="5vMcAia91ODTiXavnZtS-90" style="edgeStyle=orthogonalEdgeStyle;rounded=0;orthogonalLoop=1;jettySize=auto;html=1;exitX=0;exitY=0.5;exitDx=0;exitDy=0;entryX=1;entryY=0.5;entryDx=0;entryDy=0;endArrow=none;endFill=0;" edge="1" parent="1" source="5vMcAia91ODTiXavnZtS-75" target="5vMcAia91ODTiXavnZtS-86">
          <mxGeometry relative="1" as="geometry" />
        </mxCell>
        <mxCell id="5vMcAia91ODTiXavnZtS-92" value="1" style="text;html=1;align=center;verticalAlign=middle;resizable=0;points=[];autosize=1;strokeColor=none;fillColor=none;" vertex="1" parent="1">
          <mxGeometry x="520" y="248" width="30" height="30" as="geometry" />
        </mxCell>
        <mxCell id="5vMcAia91ODTiXavnZtS-93" value="*" style="text;html=1;align=center;verticalAlign=middle;resizable=0;points=[];autosize=1;strokeColor=none;fillColor=none;" vertex="1" parent="1">
          <mxGeometry x="827" y="480" width="30" height="30" as="geometry" />
        </mxCell>
      </root>
    </mxGraphModel>
  </diagram>
</mxfile>
